<?xml version="1.0" encoding="UTF-8" standalone="no"?>
<svg xmlns:rdf="http://www.w3.org/1999/02/22-rdf-syntax-ns#" xmlns="http://www.w3.org/2000/svg" xml:space="preserve" height="196.4" viewBox="0 0 246.00127 196.3998" width="246" version="1.1" xmlns:cc="http://creativecommons.org/ns#" xmlns:dc="http://purl.org/dc/elements/1.1/"><g transform="matrix(1.25 0 0 -1.25 -280.36 764.3)"><g><path d="m255.92 586.63c-3.235 1.323-6.277 3.323-7.383 4.281-1.106 0.959-3.613 4.203-4.203 6.341-0.59 2.139 0.885 3.687 0.885 3.687s0.369 1.254 6.931 0.516c6.563-0.737 9.143 1.033 10.618 3.835s3.539 5.898 6.12 5.677 7.89-0.663 11.503-2.728 5.972-4.719 6.783-5.899 4.13-7.447 6.932-7.668c2.801-0.222 7.447 0.221 9.511 0.368 2.065 0.148 11.503 0.443 17.992-1.622 6.489-2.064 5.209-1.861 5.775-1.225 0.566 0.635 1.377 4.838 2.852 6.092 1.475 1.253 4.203 3.539 8.627 3.244s7.226-0.959 11.282-5.088c4.055-4.129 5.677-8.922 11.871-11.65 0 0 3.751-1.985 4.53-3.167 0.779-1.183 0.853-2.805-1.138-3.911s-3.171-1.696-3.171-1.696 0.295-2.507 3.392-3.319c3.097-0.811 8.701-2.654 12.24-4.866s7.079-5.604 7.226-9.954c0.148-4.351-3.17-7.448-9.217-7.374 0 0 5.235-3.908 6.489-5.161 1.253-1.254 2.138-0.664 2.138-0.664s6.342 2.065 10.323-1.991c3.982-4.055 3.982-8.479 4.351-14.231 0 0 3.039 3.96 0.929 13.114 0 0 5.707-1.021 8.877-7.731 0 0 1.919-5.094 2.471-9.736 0 0 3.723-0.218 5.935-2.504s2.655-5.162 2.729-7.816c0.073-2.655 0.221-4.277 0.221-4.572s-1.622-5.751-10.471-8.627c0 0-0.885-0.663-1.179-1.917-0.295-1.253-1.033-7.742-7.227-11.945-6.193-4.203-10.986-3.244-10.986-3.244s-3.539 0.294-5.383-0.148c-1.843-0.442-9.364-1.696-14.01-0.811 0 0-3.834-4.94-16.959-6.636 0 0-12.092-1.327-13.715-2.433-1.622-1.106-4.26-3.765-9.356-5.754 0 0 2.057-11.132-1.188-12.164-3.244-1.033-11.134 8.996-11.134 8.996s-13.641-1.106-21.899 0.663c-8.259 1.77-11.691 3.766-11.691 3.766s-5.711-6.715-8.513-6.125c0 0-0.958 0-1.18 1.696-0.221 1.695-0.663 7.594-0.663 7.594s-12.683 4.793-20.351 13.273c0 0-5.847 6.614-8.269 12.192 0 0-8.911-0.1-9.059 2.112-0.147 2.212 4.755 5.155 4.755 5.155s-4.091 6.864-6.451 17.335c0 0-1.401 10.618-1.327 12.314 0.074 1.695-1.106 2.138-1.106 2.138s-8.332 3.17-7.816 4.866 8.84 5.515 8.84 5.515 1.598 17.652 11.2 28.964c0 0-6.915 7.256-5.44 9.32 1.474 2.065 10.249-1.327 10.249-1.327s0.885-0.737 2.359 0.147c1.475 0.885 3.549 2.503 3.549 2.503" fill="#002967"/><path d="m267.93 584.94c-4.719-0.848-9.77 0.737-9.77 0.737l-3.574-3.014s2.947-1.299 3.611-1.705c0.664-0.405 1.393-1.393 1.729-2.3 0 0 4.065 5.646 8.078 5.913 0.553 0.037-0.074 0.369-0.074 0.369zm-19.515-28.855 7.283 12.56c-5.94-0.516-8.752 4.932-8.752 4.932-8.842-10.428-10.384-26.182-10.384-26.182 9.039 2.42 10.87 0.186 10.87 0.186-1.279 3.834 0.983 8.504 0.983 8.504zm-4.449-49.452 7.779 5.862s2.212 1.401 4.535 0.369c0 0-4.763 8.127-5.737 13.096-0.973 4.969-1.667 8.194-1.965 9.531 0 0-2.511-1.281-5.018-1.207-2.507 0.073-7.004 1.474-7.004 1.474s0.442-12.166 3.133-19.134c2.692-6.968 4.277-9.991 4.277-9.991zm16.998-5.187c-0.411-1.659-0.961-2.15-3.984-2.961s-8.332-0.627-8.332-0.627 2.139-5.604 8.942-12.099c6.802-6.495 17.355-11.311 17.355-11.311s0.653 3.649 1.243 5.64 1.328 2.323 1.328 2.323-3.503-0.258-5.936 1.364-5.862 7.152-5.862 7.152-2.544 4.609-3.208 7.005c-0.663 2.397-1.47 3.821-1.546 3.514zm26.248-30.427c1.401-0.738 7.078-3.134 14.305-3.798 7.226-0.663 15.891-0.264 15.891-0.264s-0.702 1.481-0.813 3.398c-0.11 1.917 1.555 2.573 1.555 2.573-12.787-2.147-18.182-1.172-22.864-0.324s-6.433 3.587-6.433 3.587-0.24-1.449-0.609-2.149c-0.369-0.701-0.727-1.437-1.691-2.746l0.659-0.277zm48.333 2.433c-2.236-2.112-5.416-3.491-5.416-3.491s-0.298 1.353-0.409 1.758c-0.11 0.406-0.518 0.875-0.518 0.875 0.329 0.285 0.961 0.416 0.961 0.416l5.825 1.03s0.221 0.039-0.443-0.588" fill="#b31934"/><path d="m400.07 519.21s3.974-0.558 5.891 1.285 2.507 3.244 2.286 5.53-1.032 5.088-1.77 6.71c-0.737 1.622-2.45 3.526-2.884 3.237-0.434-0.287-0.037-1.705-0.037-1.705s0.414-3.375-0.176-4.555c-0.589-1.18-2.875-5.53-3.096-7.595-0.222-2.064-0.214-2.907-0.214-2.907zm-9.446-0.19s2.36-0.442 3.466-0.811c1.106-0.368 1.401-1.106 2.654 0.221 1.254 1.328 0.885 4.203 0.295 5.383s-3.318 1.18-3.318 1.18-2.876-0.221-4.719-0.737c-1.843-0.517-1.467-4.935-1.467-4.935l3.089-0.301zm-10.32 1.414c0.964 0.037 4.042-0.668 4.042-0.668 0.505 0.452 0.601 2.72 0.601 3.605s-0.193 1.365-0.193 1.365-1.061-0.48-1.577-0.628c-0.516-0.147-1.327 0.148-1.991 0.221-0.664 0.074-3.097-0.516-4.129-0.885-1.032-0.368-0.959-0.442-1.549-1.474-0.589-1.033-1.401-2.065-1.401-2.065s5.232 0.492 6.197 0.529zm-16.962 2.716s-2.138 0.073-2.507-1.475c-0.369-1.549 0.373-2.42 0.555-2.205 0.182 0.214 0.428 0.501 1.141 0.361 0.713-0.139 6.046-0.221 6.046-0.221s4.118 0.18 4.087 1.417c-0.031 1.238-0.853 1.669-0.853 1.669s-1.39-0.284-1.833-0.284c0 0-2.359-0.369-3.097-0.369-0.737 0-1.991 0.738-1.991 0.738s-0.884 0.442-1.548 0.369zm-11.06 10.691s-0.811 1.106-0.885 0.148c-0.074-0.959-0.737-7.669-0.959-8.48-0.221-0.811-1.253-3.613-1.253-3.613s-0.885-2.286 0.074-2.286c0 0 2.393 0.097 4.203 0.59 1.809 0.494 3.23 1.009 3.465 1.549 0.235 0.539 0.442 0.958-0.074 2.58s-3.686 8.259-4.571 9.512zm14.894 10.397s-1.37-0.044-1.373-0.366 1.57-0.617 2.356-0.617c0.787 0 3.835-0.197 4.621-1.18s1.278-1.77 1.278-2.261c0-0.492 0.115-2.18 0.942-2.024 0.828 0.156 1.451 1.643 1.484 2.522 0.032 0.878-1.442 2.55-2.819 3.14-1.376 0.589-2.065 0.786-6.489 0.786zm-86.712-64.593s-0.492-0.098-0.885-1.13c-0.393-1.033-1.475-6.145-1.032-7.177 0 0 0.147-0.098 0.393 0.885s1.082 2.9 1.082 2.9 0.786 2.016 1.081 2.261c0.295 0.246 0.393 0.492 0.295 1.131s-0.344 0.934-0.934 1.13zm5.358-0.294s0.884-0.541 1.13-1.377-2.212-4.768-3.736-6.636-5.157-5.234-5.157-5.234-0.742 4.841-0.84 6.807c-0.098 1.967 0.59 5.899 1.426 7.619 0.835 1.721 2.212 1.672 2.212 1.672 2.458-0.197 4.965-2.851 4.965-2.851zm33.18 42.52c-0.835 1.376-1.474 2.753-2.152 2.976-0.677 0.223-1.19-0.764-2.124-2.042-0.935-1.278-1.819-2.016-1.819-2.016s-0.639-0.737-0.581 1.277c0.058 2.013 2.301 5.36 2.301 5.36s1.377 2.064 2.114 2.31c0.738 0.246 2.016-2.31 2.016-2.31l3.047-5.26s0.787-1.327 1.377-1.426c0.59-0.098 4.129 5.162 4.129 5.162s1.868 2.654 4.031 2.851c2.163 0.196 2.998-4.817 3.441-6.095 0.442-1.278 0.442-1.524 1.524-1.918 1.081-0.393 2.949 2.556 2.949 2.556l3.932 4.376s-6.734 3.145-8.012 4.374c0 0-1.475 1.18-1.671 1.328-0.197 0.147-0.639 0.491-1.131 0.245-0.492-0.245-1.524-2.458-3.343-2.359-1.818 0.098-2.871 2.932-2.871 2.932s-1.209 3.065-2.29 2.967c-1.081-0.099-2.753-1.77-3.54-3.146-0.786-1.377-0.884-2.114-1.818-2.065s-1.622 1.327-1.622 1.327-1.264 2.066-2.746 1.77c-1.482-0.295-2.907-6.931-2.907-6.931s-1.131-10.225 0.344-14.206c1.474-3.982 4.768-4.376 7.373-3.147 2.606 1.229 3.358 2.917 3.646 2.515 0.287-0.401 1.957-5.33 4.858-4.561 0 0 0.688-0.067 2.212 1.014 1.524 1.082 7.571 5.653 10.028 6.882 2.458 1.229 6.467 2.133 6.896 3.229 0.429 1.097 1.743 5.452 1.743 5.452s-2.248 1.446-3.182 0.61-5.112-5.751-5.112-5.751-2.926-3.132-4.167-2.795c-1.241 0.336-1.585 1.566-1.585 1.566s-2.999 5.407-4.08 4.964c-1.081-0.442-3.441-4.571-3.441-4.571s-1.593-2.634-3.429-2.701c-1.266-0.046-3.502 3.88-4.338 5.257zm9.604 29.566c0.756-0.026 2.931 0.862 2.882 2.73s-1.819 1.917-1.819 1.917-2.691-0.241-2.998-2.802c-0.148-1.229 1.18-1.819 1.935-1.845zm-5.081 4.156c0.295 0.884 1.13 2.212 1.622 2.408 0.491 0.197 0.604 0.483 0.604 0.483s0.526 0.451-1.587 1.975c-2.114 1.524-9.93 6.194-9.93 6.194s-0.639 0.344-1.229 0.688-1.061 0.267-1.278-0.049-2.31-2.507-2.064-5.997c0.245-3.49 0.491-2.557 0.049-4.375-0.443-1.819 1.622-2.016 2.359-1.967 0.737 0.05 3.687 0.886 5.309 0.394s3.952-1.15 5.515-3.205c0 0 0.335 2.566 0.63 3.451zm-75.616 24.738s0-0.331 0.553-0.811c0.553-0.479 3.748-3.087 3.748-3.087s1.26-0.589 1.558-0.705 0.704-0.411 0.962-0.521c0.258-0.111 0.553-0.406 0.553 0.037 0 0.442-0.738 1.401-1.143 1.585-0.406 0.184-5.604 4.019-6.231 3.502zm8.111-1.659c2.581-1.327 1.917-3.539 1.917-3.539s-0.368-3.687-2.797-3.892c-2.428-0.206-4.208 1.754-4.208 1.754s-5.087 6.267-6.361 7.962-0.791 1.771-0.791 1.771c0.59 0.627 9.659-2.728 12.24-4.056zm-19.982-36.683s-1.039 0.054-1.146-0.194c-0.108-0.248 0.853-0.297 0.853-0.297s1.509-0.283 2.247-0.431c0.737-0.147 3.465-0.368 3.465-0.368s3.356-0.326 3.448 0.095-1.567 0.826-1.567 0.826-3.908 0.48-7.3 0.369zm-0.221-2.433c-0.517 0.221-4.203 1.474-5.014 1.622-0.812 0.147-0.844 0.58-0.844 0.58 0.152 0.654 3.793 1.927 5.968 2.664 2.175 0.738 6.046 1.659 8.074 1.659s2.47-0.368 3.171-1.696c0.7-1.327 0.258-4.829-0.553-5.935s-2.986-1.033-2.986-1.033c-2.544-0.184-7.3 1.917-7.816 2.139zm18.102-32.739s-0.627 0-2.581-0.848-4.793-2.433-4.793-2.433-0.184-0.184-0.074-0.332c0.111-0.147 0.406 0.037 0.406 0.037s1.696 0.59 2.028 0.627c0.331 0.037 2.101 0.516 2.802 0.811 0.7 0.295 1.8 1.108 2.061 1.217 0.261 0.11 1.004 0.192 0.964 0.594-0.039 0.401-0.813 0.327-0.813 0.327zm4.018 0.774s1.254-3.318 0.702-5.289-6.158-1.384-7.707-1.347c-1.548 0.037-7.299-0.405-7.963-0.332-0.664 0.074-0.627 0.701-0.627 0.701s0.111 0.995 5.752 5.272c5.64 4.277 6.525 3.724 6.525 3.724 2.249-0.111 3.318-2.729 3.318-2.729zm64.003-38.342s-0.517-0.221-0.48-0.664c0.037-0.442 0.738-1.622 0.738-1.622l2.366-3.27s0.494-0.659 0.631-0.556c0.136 0.102-0.408 1.224-0.408 1.224l-0.672 1.533s-0.369 0.958-0.59 1.217c-0.221 0.258-0.37 0.773-0.37 0.773s0.075 0.296-0.036 0.664c-0.11 0.369-0.59 0.701-1.179 0.701zm3.797 2.949c0.737-0.147 1.032-1.327 1.032-1.327l1.18-4.793s1.18-6.267-0.147-6.341c-1.328-0.074-5.088 4.645-5.088 4.645s-3.171 3.982-3.023 5.088c0.147 1.106 1.239 1.751 1.239 1.751 1.681 0.794 4.07 1.125 4.807 0.977" fill="#fff"/><path d="m279.68 514.35s0.197-3.617 0.885-3.529 1.376 0.973 1.573 1.366c0.196 0.393 2.359 6.096 2.949 7.669s6.292 13.469 10.126 17.303c3.835 3.834 4.092 3.745 4.16 4.576s-1.407 1.224-2.488 0.536c-1.082-0.688-5.014-2.163-12.388-15.14 0 0-4.227-6.882-4.817-12.781zm35.054 76.002s-3.76 1.253-4.276 0.295c-0.516-0.959 2.433-1.549 2.433-1.549s4.719-2.286 5.751-3.171c1.033-0.884 3.167-2.993 4.277-3.318 1.11-0.324 1.991-0.59 2.286 0.222 0.295 0.811-0.516 2.285-1.106 2.654s-6.784 4.055-9.365 4.867zm77.368-53.857s-1.327 0-1.954-1.253c-0.627-1.254 0.074-1.917 0.479-2.028 0.406-0.11 1.512 0.074 2.028 0.885s0.958 1.991-0.553 2.396zm-4.977-1.179s2.101 0.037 1.806 1.88-2.028 1.733-2.028 1.733-1.589 0.08-1.695-1.549c-0.111-1.696 1.917-2.064 1.917-2.064zm-23.854-0.443s-1.659-0.147-1.843-1.88c0 0 0.258-1.77 1.917-1.696s1.696 1.77 1.696 1.77 0.111 1.548-1.77 1.806zm-5.714 2.987s-1.586-0.111-1.807-1.475c0 0 0.111-1.217 1.622-1.143 1.512 0.074 1.855 1.144 1.844 1.401-0.011 0.256 0.037 1.143-1.659 1.217zm-11.761-2.102s-1.364-0.184-1.512-1.511c-0.147-1.328 1.364-1.365 1.733-1.254s1.217 0.811 0.996 1.733c-0.222 0.921-1.217 1.032-1.217 1.032zm12.83 3.367c1.943-0.518 7.177-1.572 8.357-1.769 1.179-0.197 3.736-1.77 4.817-3.441s2.61-1.799 2.61-1.799c1.922-0.227 4.272 3.274 4.665 6.715s-1.573 5.702-1.573 5.702-2.458 2.949-8.947 2.556c0 0-2.261-0.555-5.898-1.868-3.638-1.312-6.987-2.024-7.669-3.932-0.492-1.377 1.695-1.645 3.638-2.164zm-56.555-8.16c1.106 4.719 2.875 10.471 4.571 13.641 1.696 3.171 5.752 6.563 8.259 7.079s7.226-2.949 7.226-2.949 7.742-5.899 11.576-7.89c3.835-1.991 5.162-2.065 7.743-2.581 2.58-0.516 6.636-0.221 6.636-0.221s3.392 0.147 3.038 0.673c-0.353 0.525-2.522 0.482-2.522 0.482s-2.728 0.32-5.235 0.836-4.629 2.316-4.629 2.316c3.039 3.496 9.643 2.182 10.97 2.403s-0.295 2.728-0.516 3.244-2.581 0.885-4.572 1.475-6.562 4.572-6.562 4.572l-19.761 14.747s-4.498 3.17-8.671 3.858c-4.174 0.688-5.56-2.457-6.076-3.785-0.517-1.327-0.443-2.285 0-2.58 0.442-0.295 1.179 0.221 1.179 0.221s1.106 1.327 2.507 1.474c1.401 0.148 2.13-1.857 2.13-1.857-1.999-1.71-2.572-3.156-2.72-6.696-0.147-3.539 1.348-5.468 1.348-5.468s1.086-0.947 1.075-1.669c-0.01-0.722-0.505-1.416-2.128-1.932-1.622-0.516-2.507-0.148-3.509 0.152s-3.938-0.668-4.233-0.742-1.327-0.295-1.401 0.442c-0.074 0.738 3.834 3.982 3.834 3.982s3.613 3.539 3.318 4.645c-0.294 1.106-1.032 1.622-1.032 1.622s-3.465 2.508-5.382 5.236c-1.918 2.728-1.844 5.899-1.844 5.899 0.221 6.488 6.407 6.062 6.407 6.062 9.946 0.386 22.202-10.265 26.995-13.952s14.6-10.618 14.6-10.618 3.834-2.286 6.12-2.581 4.203 2.95 4.39 4.307c0.186 1.357-0.703 2.772-1.335 2.781-0.633 0.009-0.594-1.854-0.594-1.854s0.046-1.178-1.409-1.632c-1.455-0.453-6.14 3.698-6.14 3.698s-6.489 6.415-14.747 14.157-14.378 10.249-19.54 12.314c-5.161 2.065-10.102 2.138-12.756 1.77-2.655-0.369-8.037-5.604-8.305-13.174-0.267-7.569 8.01-12.486 8.01-12.486s2.212-1.328 2.36-1.77c0.147-0.442-0.074-0.958-0.885-1.843s-4.056-4.498-4.646-5.752c-0.589-1.253-0.221-1.253-0.203-2.551 0.018-1.297-3.631-3.642-3.631-3.642s-14.599-9.955-22.932-16.296c-8.332-6.341-9.217-12.83-9.217-12.83-3.465 5.456-5.898 14.01-6.562 17.328s0.074 3.465 0.074 3.465c1.18 0.664 2.587-0.486 4.94-2.507 2.354-2.021 3.061-4.691 3.061-4.691s0.036-1.724 0.742-1.595c0.706 0.13 0.4 2.305 0.179 3.558-0.221 1.254-1.033 2.507-2.139 4.203s-7.963 7.374-8.479 7.742c-0.516 0.369-1.106 1.033-1.169 1.445-0.063 0.413 0.8 0.694 0.8 0.694s0.59 0.147 0.664 0.958-1.622 3.023-1.549 4.424c0.074 1.401 0.517 3.171 1.844 5.383s8.037 13.936 9.886 18.507c1.849 4.57 4.747 6.044 4.747 6.044s2.473 1.33 2.967 0.112c0.493-1.219 0.778-5.563 0.76-6.45-0.019-0.887 0.056-0.856 0.056-0.856 0.571 0.176 1.419 2.994 2.082 4.985 0.664 1.991 0.443 4.055 0.148 4.498-0.295 0.442-0.821 2.755-0.821 2.755 1.834 0.617 4.434 2.333 5.392 3.733 0.959 1.401 1.246 1.125 1.246 1.125 1.541 0.24 4.358-2.452 4.801-2.968 0.442-0.516 1.327-0.516 1.179 1.254-0.147 1.769-2.212 3.023-2.212 3.023l-2.47 1.25-0.11 1.404s0.147 2.212-0.664 2.212-1.549-1.106-2.581-3.023-2.581-2.876-2.581-2.876c-2.949-1.769-6.783-2.728-14.452-1.99-7.668 0.737-11.06 7.373-11.355 8.405-0.295 1.033 0.221 1.623 0.221 1.623s0.492 0.467 1.377 0.221 4.115-1.2 8.079-0.821c0 0 0.277-0.506-0.362-1.342s-0.787-1.588-0.787-1.588 0.148-0.329 1.672 0.801c1.524 1.131 1.229 1.918 2.36 2.507 1.13 0.59 2.113 0.934 3.736 2.851 1.622 1.918 3.047 4.376 3.047 4.376s0.885 1.72 2.213 1.72c1.327 0 4.62-0.737 5.505-1.082 0.885-0.344 4.719-1.229 6.931-3.637 2.212-2.409 6.391-7.865 6.391-7.865s3.932-4.965 4.964-5.85c1.033-0.885 2.233-2.084 2.862-1.312 0 0 0.186 0.182-0.109 0.968s-0.59 1.278 0.049 1.573 9.389 2.949 18.729 1.032c0 0 8.209-2.408 12.24-3.686 4.031-1.279 16.173-5.309 16.173-5.309s5.751-1.868 8.16-3.245c2.408-1.376 7.373-5.112 7.373-5.112s1.559-1.182 1.32-1.5c-0.238-0.319-0.976-0.172-0.976-0.172s-0.995-0.01-0.915-0.57 1.849-0.904 1.849-0.904 5.26-0.344 6.44-0.738c0 0 2.507-0.491 7.865-3.342 5.358-2.852 6.194-3.835 7.029-6.047 0.836-2.212 0.885-4.915 0.05-5.948-0.836-1.032-3.146-1.671-5.948-1.573-2.802 0.099-8.062 0.787-11.946 4.523-3.883 3.736-5.014 7.963-5.014 7.963s-1.827 4.033-2.949 5.309-3.343 3.982-4.375 3.589c0 0-0.294-0.099 0.049-0.934 0.344-0.836 5.429-9.018 5.429-9.018s-1.643-0.273-5.723 3.905c-4.081 4.179-9.734 8.111-11.061 7.865-1.327-0.245-2.065-0.393-2.015-1.032 0.049-0.639 1.622-1.622 1.622-1.622l14.452-11.503s3.883-2.802 4.326-6.734c0.442-3.933-0.836-6.538-3.146-8.209-2.311-1.672-4.375-2.999-4.572-3.54-0.196-0.541 0.696-0.243 0.962-0.195 0.267 0.048 9.41 2.85 11.524 3.44 2.114 0.589 6.686 1.671 8.406 1.622s3.982-0.59 6.538-3.196c2.556-2.605 2.359-3.342 2.359-3.342s-0.442-0.738 0.934-0.639c1.377 0.098 4.621 0.983 8.455-0.738 3.835-1.72 6.096-4.964 6.538-7.422 0.443-2.458 0.295-5.113-0.491-5.506-0.787-0.393-2.016-0.197-2.016-0.197s-3.407 0.733-4.382 0.662c-0.976-0.072-4.613-0.17-4.761-0.17-0.147 0-3.49-0.246-5.948 1.622 0 0-0.743 0.615-1.084 1.07-0.341 0.454-0.784 0.848-1.03 0.454-0.245-0.393-0.049-1.18-0.049-1.18s0.049-1.327-0.983-2.113c-1.032-0.787-4.257-2.844-6.209-2.798-1.951 0.045-3.064 0.848-6.49 0.741-3.424-0.106-3.326-0.204-3.572 0.631-0.246 0.836-3.687 10.028-9.192 10.765 0 0-0.688 0.148-0.688-1.229 0-1.376-0.049-1.818 0-2.752s0.564-5.838-0.677-5.746c-1.241 0.093-2.961 1.42-2.961 1.42l-10.421 6.685-12.29 9.045s-4.276 2.851-6.685 2.654c-2.409-0.196-4.523-3.244-4.867-4.768s-0.054-2.221 0.246-2.064c0.3 0.156 2.065 2.015 2.36 1.917 0.295-0.099-0.099-0.836-0.099-0.836s-2.064-4.326-3.342-8.308c-1.278-3.981-3.048-11.502-2.262-18.384 0.787-6.882 1.721-13.223 3.196-17.745 1.474-4.523 5.014-11.847 5.014-11.847s0.983-2.114 0.393-4.129c-0.59-2.016-2.114-7.03-8.553-7.079-6.44-0.049-13.371-0.098-16.419 2.556-3.048 2.655-4.867 6.489-12.486 7.964 0 0-3.981 0.147-5.26 1.081-1.278 0.934-3.244 2.704-6.341 8.75s-6.194 13.764-5.997 17.549c0.196 3.785 2.851 7.177 2.851 7.177s3.982 5.603 10.372 10.42c6.391 4.818 17.942 12.781 17.942 12.781s7.248 5.139 11.44 5.15c0 0-1.952-3.282-3.132-8.984s-3.135-10.486-3.135-10.486-0.89-1.643 0.186-1.656c1.075-0.012 2.556 0.148 3.047 1.377 0.492 1.229 0.861 3.097 0.861 3.097zm-16.959 32.886s-1.254 3.023-1.696 4.424c-0.443 1.401-0.516 2.36-0.516 4.351s-1.18 2.212-1.18 2.212-0.516-0.074-0.664-0.811c-0.147-0.738-0.221-2.876-0.074-3.761 0.148-0.885 1.033-3.613 1.549-4.571 0.516-0.959 1.917-3.023 1.622-4.277-0.295-1.253-0.117-1.839-2.16-5.048 0 0 3.561 1.656 3.561 5.343l-0.442 2.138zm75.947-9.225s-0.523-3.079-0.593-4.079 0.371-1.891 0.371-1.891l4.966 1.382s-1.327 5.342-4.744 4.588zm44.856-54.531s-6.686-0.394-8.848-3.539c-2.163-3.146-6.194-5.997-6.194-5.997s-4.738-3.62-4.188-4.17 2.819-0.222 2.819-0.222 6.776 0.655 9.529 2.72 4.817 3.048 6.882 11.208zm-0.242 3.984c10.179 0.936 10.958 5.159 11.45 6.437 0.491 1.278-0.099 1.672-0.197 4.621-0.099 2.949-1.573 4.326-2.655 4.817-1.081 0.492-1.572 2.065-6.39-0.59-4.817-2.654-8.947-2.654-8.947-2.654s3.466-1.365 3.995-1.617c0.528-0.251 1.315-1.037 0.528-1.726-0.786-0.688-2.261-0.786-3.146-0.59-0.885 0.197-4.031 2.36-13.469 3.736-9.438 1.377-19.59 0.323-19.59 0.323s-0.86-0.225-3.416 0.267-5.505 0.983-7.963 0.983-10.52-1.475-15.927-5.407c-5.407-3.933-10.716-8.947-10.716-8.947s-3.343-3.048-8.16-2.851-7.666 3.05-7.666 3.05 2.062-8.752 3.733-12.291c1.672-3.54 3.245-7.079 2.852-10.126-0.394-3.048-1.475-4.425-1.475-4.425s-0.689-0.589 0.491-1.081c1.18-0.491 4.228-1.573 7.374-1.18 3.146 0.394 10.028 2.163 10.028 2.163s4.395 1.121 6.587 1.18c2.193 0.059 8.16-0.099 11.011 0.393s12.682 2.556 15.14 6.096c2.458 3.539 2.458 4.817 3.933 5.604 1.475 0.786 1.672 0.196 1.475-0.492s-2.294-4.495-2.294-4.495 1.665-0.567 4.339-0.297 4.738 1.056 9.654 4.792 9.445 8.67 9.445 8.67-4.53-0.51-10.33 0.67-14.943 5.309-14.943 5.309-7.374 2.851-13.961 2.654c-6.587-0.196-13.273-1.868-13.273-1.868s-7.001-1.633-6.941-0.423 1.436 1.8 1.436 1.8 8.852 5.078 15.29 4.652c6.437-0.425 17.547-2.195 22.463-3.473 4.915-1.278 16.909-5.997 21.137-5.997s6.489 0.591 7.865 1.082c1.377 0.491 1.233 1.231 1.233 1.231zm-58.918 92.658c2.064-1.106 4.202-5.456 5.53-7.594 1.327-2.139 4.645-4.793 5.382-5.236 0.738-0.442 5.014-2.433 5.014-2.433s1.106-0.59 1.308-1.296c0.201-0.706-1.529-1.653-3.372-2.022-1.844-0.369-3.687 0.516-4.867 1.401s-3.244 2.286-5.161 3.318-3.687 4.645-3.687 4.645-1.975 4.229-2.286 4.793-1.18 1.18-1.692 0.845 0.144-1.214 0.807-2.246c0.664-1.032 1.033-2.359 1.328-3.465s0.884-2.36 0.589-2.286c-0.294 0.074-3.834 1.18-4.866 1.548-1.032 0.369-8.775 2.728-9.659 3.097-0.885 0.369-0.713 1.622-0.713 1.622s0.59 2.802 2.359 5.309c1.77 2.507 5.506 2.163 5.506 2.163 5.678-0.344 6.415-1.057 8.48-2.163" fill="#c3c7cd"/></g></g></svg>
