<?xml version="1.0" encoding="utf-8"?>
<!-- Generator: Adobe Illustrator 23.0.3, SVG Export Plug-In . SVG Version: 6.00 Build 0)  -->
<svg version="1.1" id="Layer_1" xmlns="http://www.w3.org/2000/svg" xmlns:xlink="http://www.w3.org/1999/xlink" x="0px" y="0px"
	 viewBox="0 0 116 85" style="enable-background:new 0 0 116 85;" xml:space="preserve">
<style type="text/css">
	.st0{fill:#FFB71B;}
	.st1{fill:#FFFFFF;}
</style>
<title>upg_logo</title>
<desc>Created with Sketch.</desc>
<g>
	<g id="Group" transform="translate(19.000000, 74.000000)">
		<path id="Path" class="st0" d="M38.3,1.5c0,2.3,0,4.6,0,6.9c-0.5,0-1,0-1.6,0c0-3,0-6,0-9.1c0.7,0,1.4,0,2.2,0
			c1.4,2.2,2.9,4.5,4.4,6.8c0-2.2,0-4.5,0-6.8c0.5,0,1,0,1.6,0c0,3,0,6,0,9c-0.7,0-1.3,0-2.1,0C41.3,6.1,39.8,3.8,38.3,1.5z"/>
		<path class="st0" d="M10.7,0.3c-0.4,0.4-0.7,0.8-1.1,1.2c-0.9-0.8-1.9-1-3-0.8C5.8,0.9,5.2,1.2,4.7,1.8C3.8,2.9,3.9,4.8,4.8,6
			c1,1.2,3,1.5,4.5,0.7c0-0.6,0-1.3,0-2c-0.6,0-1.1,0-1.7,0c0-0.5,0-1,0-1.5c1.1,0,2.2,0,3.3,0c0,1.5,0,3,0,4.6C9,8.6,7,9,5,8.2
			C3.2,7.4,2.1,5.3,2.4,3.1c0.3-2,1.8-3.6,3.8-3.9C7.6-1.1,9-1,10.2-0.2c0.1,0.1,0.3,0.2,0.4,0.3C10.6,0.2,10.6,0.2,10.7,0.3z"/>
		<path class="st0" d="M88,3.2c0,1.5,0,3.1,0,4.6c-1.8,0.9-3.7,1.2-5.6,0.5c-2-0.7-3.1-2.8-2.8-5.1c0.2-2,1.8-3.6,3.8-4
			c1.6-0.3,3.1-0.1,4.5,1.1c-0.4,0.4-0.8,0.8-1.2,1.2c-0.9-0.7-1.9-1.1-2.9-0.8c-0.6,0.2-1.3,0.5-1.8,1c-1,1-1,3-0.2,4.2
			c0.9,1.3,2.8,1.6,4.6,0.8c0-0.6,0-1.3,0-2c-0.6,0-1.1,0-1.7,0c0-0.5,0-1,0-1.5C85.8,3.2,86.9,3.2,88,3.2z"/>
		<path id="Shape" class="st0" d="M59.3,3.6c1.3,0.5,1.9,1.3,1.8,2.5c-0.1,1.1-0.9,2-2.2,2.1c-1.5,0.1-2.9,0-4.5,0
			c0-2.9,0-5.9,0-8.9c1.5,0,2.9-0.1,4.4,0c1,0.1,1.7,0.8,1.8,1.8c0.2,0.9-0.2,1.7-1.1,2.2C59.5,3.5,59.4,3.5,59.3,3.6z M56,7.1
			C56.9,7,57.7,7,58.5,6.9c0.6-0.1,0.9-0.6,0.9-1.2c0-0.6-0.4-1.1-1-1.1c-0.8-0.1-1.6-0.1-2.4-0.1C56,5.3,56,6.1,56,7.1z M56,3.1
			c0.7,0,1.4,0,2.1-0.1c0.6-0.1,1-0.5,1-1.1c0-0.5-0.3-1-0.9-1.1c-0.7-0.1-1.4-0.1-2.2-0.1C56,1.5,56,2.2,56,3.1z"/>
		<path class="st0" d="M15.7,4.6c-0.4,0-0.7,0-1.2,0c0,1.3,0,2.5,0,3.8c-0.6,0-1.1,0-1.6,0c0-3,0-6,0-9c1.5,0,3-0.1,4.5,0
			c1.2,0.1,2,1.1,2,2.3c0.1,1.2-0.5,2.2-1.7,2.5c-0.1,0-0.2,0.1-0.4,0.1c0.8,1.3,1.6,2.6,2.4,3.9c-0.7,0-1.3,0-2,0
			C17.1,7.2,16.4,5.9,15.7,4.6z M14.5,3.2c0.8,0,1.5,0,2.2-0.1c0.6-0.1,0.9-0.5,0.9-1.1c0-0.6-0.3-1-0.8-1.1
			c-0.8-0.1-1.5-0.1-2.3-0.2C14.5,1.6,14.5,2.3,14.5,3.2z"/>
		<path class="st0" d="M76.5,4.4c0.8,1.3,1.6,2.6,2.4,4c-0.7,0-1.3,0-2,0c-0.7-1.2-1.4-2.5-2.1-3.8c-0.4,0-0.7,0-1.2,0
			c0,1.3,0,2.5,0,3.8c-0.6,0-1.1,0-1.6,0c0-3,0-6,0-9.2c1.5,0.1,3.1,0.1,4.6,0.3c1.2,0.2,1.9,1.2,1.9,2.4c0,1.2-0.6,2.1-1.7,2.5
			C76.7,4.4,76.6,4.4,76.5,4.4z M73.7,3.2c0.5,0,1,0,1.5,0c0.2,0,0.4,0,0.6-0.1c0.7-0.1,1.1-0.5,1.1-1.2c0-0.6-0.4-1.1-1.1-1.2
			c-0.7-0.1-1.4,0-2.1,0C73.7,1.5,73.7,2.3,73.7,3.2z"/>
		<path class="st0" d="M26.7,3c0,0.5,0,1,0,1.5c-1.3,0-2.7,0-4.1,0c0,0.8,0,1.6,0,2.5c1.5,0,3,0,4.6,0c0,0.5,0,1,0,1.4
			c-2.1,0-4.1,0-6.2,0c0-3,0-6,0-9.1c2,0,3.9,0,5.9,0c0,0.5,0,0.9,0,1.5c-1.4,0-2.9,0-4.3,0c0,0.8,0,1.5,0,2.2C24,3,25.3,3,26.7,3z"
			/>
		<path class="st0" d="M28.9-0.7c2,0,4,0,6,0c0,0.5,0,0.9,0,1.4c-1.4,0-2.9,0-4.3,0c0,0.8,0,1.5,0,2.3c1.4,0,2.7,0,4.1,0
			c0,0.5,0,0.9,0,1.5c-1.3,0-2.7,0-4.1,0c0,0.8,0,1.6,0,2.5c1.5,0,3,0,4.6,0c0,0.5,0,1,0,1.4c-2.1,0-4.1,0-6.2,0
			C28.9,5.4,28.9,2.4,28.9-0.7z"/>
		<path class="st0" d="M62.7-0.7c0.5,0,1,0,1.6,0c0,0.2,0,0.4,0,0.6c0,1.7,0,3.3,0,5c0,1.3,0.8,2.1,1.9,2.2c1.1,0,2-0.7,2.1-1.8
			c0.1-1.7,0-3.5,0.1-5.2c0-0.2,0-0.5,0-0.7c0.5,0,1,0,1.5,0C70-0.6,70-0.5,70-0.4c0,1.9,0,3.7,0,5.6c0,1.7-1.1,3-2.5,3.4
			c-1.8,0.4-3.5-0.2-4.3-1.6c-0.2-0.5-0.4-1-0.4-1.6C62.7,3.3,62.7,1.3,62.7-0.7z"/>
		<path class="st0" d="M47.5,6.3c0.6,0.7,1.4,1,2.3,0.9c0.6-0.1,1.1-0.5,1.1-1.1c0.1-0.6-0.2-1-0.9-1.2c-0.5-0.2-1.1-0.4-1.6-0.6
			c-1.3-0.5-1.9-1.3-1.8-2.5c0.1-1.2,0.8-2.2,2.1-2.5C50-1.1,51.3-1,52.5,0c-0.4,0.4-0.8,0.7-1.2,1.1c-0.4-0.4-1.1-0.6-1.8-0.5
			c-0.6,0.1-1.1,0.5-1.2,1c-0.1,0.5,0.2,0.9,0.9,1.2c0.5,0.2,1.1,0.4,1.6,0.6c1.3,0.5,1.9,1.3,1.9,2.6c-0.1,1.3-0.8,2.3-2.1,2.6
			c-1.5,0.4-3,0.2-4.2-1C46.7,7,47.1,6.7,47.5,6.3z"/>
	</g>
	<g transform="translate(112.000000, 61.000000)">
		<path class="st0" d="M-0.7-0.7c-0.8,0-1.5,0.7-1.5,1.5c0,0.8,0.7,1.5,1.5,1.5s1.5-0.7,1.5-1.5C0.9,0,0.2-0.7-0.7-0.7z M-0.7,2
			c-0.7,0-1.2-0.5-1.2-1.2c0-0.7,0.5-1.2,1.2-1.2c0.7,0,1.2,0.5,1.2,1.2C0.5,1.5,0,2-0.7,2z"/>
		<path class="st0" d="M0,0.5C0,0.2-0.3,0-0.5,0l-0.7,0v1.7h0.3V1h0.2l0.3,0.7H0L-0.4,1C-0.2,0.9,0,0.7,0,0.5z M-0.5,0.7h-0.4V0.3
			h0.4c0.1,0,0.2,0.1,0.2,0.2C-0.4,0.6-0.4,0.7-0.5,0.7z"/>
	</g>
	<path class="st1" d="M112.6,50c-0.7-1.6-2.2-2.7-3.8-2.7c-1.5,0-2.9,0.8-4,2.2c-1.3,1.6-2.1,2-2.3,2.1c-0.3-0.3-0.8-1.4-0.9-3
		c0-0.2,0-4.7,0.1-8.5c0.5,0.2,1.1,0.5,1.6,0.7c0.7,0.3,1.3,0.4,2,0.4c1.7,0,2.6-0.8,3-1.5c1.2-1.8,1.8-4.1,1.5-6.3
		c-0.1-0.9-0.5-1.8-1.2-2.5c-1.8-1.9-3.8-3.5-5.9-4.5c0.1-2,0.2-3.9,0.3-5.8l0-0.2l0-0.2c-0.5-3-2.5-4.8-5.4-4.8
		c-3.4,0-7,2.3-8.1,3.2l-0.7,0.6l0.1,5.5c-1.3,0.2-2.7,0.5-4.2,0.9c0.1-6.1,0-6.9-0.7-7.6c-1.1-1.3-2.7-1.9-4.5-1.9
		c-3.5,0-7.3,2.7-8.8,4.3L70,21l0.1,0.9c0.2,2.5,0.5,5,0.6,7.2c-0.2-0.1-0.4-0.2-0.5-0.3C69.6,28.3,68.8,28,68,28
		c-0.7,0-1.3,0.2-1.8,0.5c-0.3,0.2-0.6,0.4-0.8,0.6c-0.8,0.7-1.2,1.6-1.3,2.6c0,0.4,0,0.7,0,1.1c-1.3-0.5-2.9-0.6-3.9-0.6
		c-0.4,0-0.9,0-1.3,0.1c1.4-2.6,2.2-5.3,2.3-8.1c0.2-5.6-1.6-10.6-5.2-14.4c-4.4-4.7-11.1-7.2-19.4-7.4c-0.3,0-0.5,0-0.8,0
		C19.9,2.3,5,11.2,3,21.6l0,0.2l0,0.2c0.2,3.1,2.6,5.7,5.7,6.1c0.3,0,0.6,0.1,0.9,0.1c2.4,0,3.8-1.4,4.7-2.7l0.1-0.1l0.1-0.1
		c1-1.7,2.2-3.2,3.5-4.5c0,0.4-0.1,0.7-0.1,1l0,0.2l0,0.1c0.4,6.7,0.8,13.6,1,20.2l0,0c0.1,3,0.3,6.8,0.5,10.3l0,0.1
		c0.1,0.6,0.1,1.2,0.1,1.9c0.1,2.1,0.1,4.8,2.2,6.7l0.2,0.1l0.2,0.1c2.2,1.3,4.9,2.1,7.5,2.1l0,0c2.3,0,4.3-0.6,6-1.7l0.2-0.1
		l0.2-0.2c1-1.2,1.6-2.6,1.6-4.2c0.1-1.7,0-5.6-0.2-12.1c5.7-0.6,11.3-2.8,15.6-6.3c0,1.1,0,2.2,0,3.1c0,2.3,0,4.3-0.6,6.2
		c-0.6,1.7-1.4,2.7-2.3,3c-0.3,0.1-0.6,0.2-1,0.2c-0.6,0-1.3-0.1-1.9-0.3c-0.6-0.1-1.2-0.3-1.8-0.3c-0.2,0-0.3,0-0.4,0l0,0
		c-1.6,0.2-2.8,1.7-2.9,3.6c-0.2,4.3,4.2,7.3,8.7,8.4c0.5,0.1,1,0.2,1.6,0.2c2.2,0,4.7-0.9,6.9-2.6c2.4,2.3,5.2,3.5,8.1,3.5
		c3,0,5.9-1.3,8.3-3.7c2.3,2.1,5,3.2,7.8,3.2c3.2,0,6.1-1.4,8.6-4c2.5,2.3,5.5,3.6,8.6,3.6c3.6,0,6.8-1.5,9.4-4.4
		C112.6,56,113.7,52.6,112.6,50z M89.4,43.4c-0.1,4.6-2,6.5-3.1,6.5c-0.8,0-1.8-1.5-1.9-4.1c-0.1-2-0.1-4.6-0.1-8.2
		c1.9-0.4,3.5-0.6,5.1-0.7C89.5,38.5,89.5,40.5,89.4,43.4z M66.6,38.7c1.3,0.8,2.8,1.2,4.6,1.3c0,4.7-0.3,7.2-0.6,8.6
		c-0.6,3.1-1.7,4.1-2.1,4.1c-0.1,0-0.2-0.1-0.4-0.3c-0.9-0.9-1.7-3.3-1.6-7.6C66.7,42.3,66.7,40.3,66.6,38.7z M34.6,14.9
		c5.3,0.2,11,4.5,11,10.4c0,4.3-3.3,7.1-9,7.8c-0.2-4.3-0.4-7.3-0.4-7.3c0-0.3-0.1-0.7-0.1-1c-0.1-1.7-0.2-3.4-0.7-5.1
		c-0.6-2.1-2.3-3.7-4.7-4.6C31.9,14.9,33.2,14.9,34.6,14.9z"/>
	<path class="st0" d="M59.1,24c0.4-10.9-7.7-19.4-22.7-19.7C21.8,4,6.8,12.1,5,22c0.2,2.1,1.8,4,4,4.3c1.8,0.3,2.8-0.5,3.8-1.8
		c3.7-6.3,10.6-11.9,21.9-11.4c14.4,0.6,19.6,21.6,0,22.3C34.4,30,34.2,26,34.2,26c-0.2-2-0.2-3.9-0.7-5.8c-0.6-2-2.6-3.1-4.5-3.6
		c-2.6-0.2-5.4-0.2-7.4,1.5c-1.4,1-1.6,2.5-1.7,4c0.7,10.2,1,20.4,1.5,30.6c0.3,2.6-0.3,5.5,1.7,7.4c3.1,1.9,8.1,2.7,11.3,0.4
		c0.8-0.9,1.1-1.9,1.2-3c0.1-2-0.1-7.7-0.3-13.8C47.4,43.3,58.8,34.6,59.1,24"/>
	<path class="st0" d="M106.2,50.7c-5.4,6.7-6.5-0.2-6.7-2.1c0,0,0-7.6,0.3-11.7c1.4,0.6,3,1.6,4.2,2c0.4,0.2,0.8,0.3,1.3,0.3
		c0.5,0,1.1-0.1,1.4-0.6c1-1.4,1.4-3.2,1.2-5c-0.1-0.5-0.3-1-0.7-1.4c-2.2-2.4-4.4-3.8-6.5-4.7c0.2-2.3,0.3-4.7,0.4-7.1
		c-1-5.9-8.3-2-10.3-0.3l0.1,6.3c-0.1,0-0.2,0-0.3,0c-2.4,0.2-4.7,0.8-6.9,1.5c0,0,0,0-0.1,0c-0.1,0-0.5,0.1-1,0.3
		c0.1-4.8,0.2-8.6-0.1-8.9c-2.9-3.2-8.5,0.2-10.4,2.4c0.4,3.7,0.6,6.8,0.8,9.6c-0.1,0-0.2,0.1-0.4,0.1c-1.3,0.1-2.4-0.3-3.4-1
		c-0.6-0.4-1.3-0.5-1.9-0.1c-0.2,0.1-0.4,0.3-0.6,0.4c-0.4,0.3-0.6,0.8-0.6,1.3c-0.1,1.5,0,3,0.7,4.3c0,0.1,0.1,0.2,0.2,0.3
		c1.7,1.4,3.9,1.7,6.3,1.5c0.1,5.7-0.2,8.8-0.6,11c-1.6,8.6-8.3,7.6-8-4.2c0.1-3.7,0-9.2-0.5-9.6c-1.9-1.6-8.8-1.2-9.1,1.1
		c-0.8,5.4,0.3,9.1-1,13.1c-0.9,2.6-2.2,3.7-3.5,4.2c-2.1,0.8-4.4-0.4-5.6-0.2c-2,0.3-2.2,6.2,6,8.1c2.6,0.6,6.1-1.1,8.1-3.2
		c2.1,2.7,4.9,4.3,7.9,4.3c3.2,0,6.1-1.8,8.3-4.7c2.1,2.6,4.9,4.2,7.9,4.2c3.3,0,6.3-1.9,8.5-5c2.3,2.8,5.3,4.6,8.7,4.6
		c3.2,0,5.9-1.4,8-3.8C114.1,51.7,109.4,46.7,106.2,50.7 M91.4,43.4c-0.2,9.9-8.4,11.5-8.9,2.4c-0.2-2.7-0.1-6.2,0-9.9
		c2.8-0.6,5.8-1.1,9-1.1C91.5,36.8,91.5,39.1,91.4,43.4"/>
</g>
</svg>
